<svg width="137" height="16" viewBox="0 0 137 16" fill="none" xmlns="http://www.w3.org/2000/svg">
<path d="M0.34 15V0.999999H3.56V12.24H7.26V0.999999H10.48V12.24H14.2V0.999999H17.4V15H0.34ZM22.2061 3.8H19.0461V0.999999H28.6261V3.8H25.4461V15H22.2061V3.8ZM30.2619 0.999999H36.1219C36.8952 0.999999 37.5952 1.14 38.2219 1.42C38.8485 1.68667 39.3819 2.05333 39.8219 2.52C40.2752 2.97333 40.6219 3.50667 40.8619 4.12C41.1019 4.73333 41.2219 5.38 41.2219 6.06C41.2219 6.74 41.1019 7.38667 40.8619 8C40.6219 8.61333 40.2752 9.15333 39.8219 9.62C39.3819 10.0733 38.8485 10.44 38.2219 10.72C37.5952 10.9867 36.8952 11.12 36.1219 11.12H33.5019V15H30.2619V0.999999ZM35.7219 8.48C36.0552 8.48 36.3619 8.41333 36.6419 8.28C36.9219 8.14667 37.1552 7.97333 37.3419 7.76C37.5419 7.53333 37.6952 7.27333 37.8019 6.98C37.9085 6.68667 37.9619 6.38 37.9619 6.06C37.9619 5.74 37.9085 5.43333 37.8019 5.14C37.6952 4.84667 37.5419 4.59333 37.3419 4.38C37.1552 4.15333 36.9219 3.97333 36.6419 3.84C36.3619 3.70667 36.0552 3.64 35.7219 3.64H33.5019V8.48H35.7219ZM47.0644 5L45.3444 10.76H48.7444L47.0644 5ZM50.0844 15L49.5444 13.3H44.5644L44.0244 15H40.5644L45.5644 0.999999H48.5444L53.6044 15H50.0844ZM62.6077 13.5V15H59.5677V13.5H58.7677C57.9143 13.5 57.1477 13.3533 56.4677 13.06C55.801 12.7533 55.2277 12.3467 54.7477 11.84C54.281 11.3333 53.921 10.7467 53.6677 10.08C53.4277 9.41333 53.3077 8.71333 53.3077 7.98C53.3077 7.26 53.4277 6.56667 53.6677 5.9C53.921 5.23333 54.281 4.65333 54.7477 4.16C55.2277 3.65333 55.801 3.25333 56.4677 2.96C57.1477 2.65333 57.9143 2.5 58.7677 2.5H59.5677V0.999999H62.6077V2.5H63.4077C64.261 2.5 65.021 2.65333 65.6877 2.96C66.3677 3.25333 66.941 3.65333 67.4077 4.16C67.8877 4.65333 68.2477 5.23333 68.4877 5.9C68.741 6.56667 68.8677 7.26 68.8677 7.98C68.8677 8.71333 68.741 9.41333 68.4877 10.08C68.2477 10.7467 67.8877 11.3333 67.4077 11.84C66.941 12.3467 66.3677 12.7533 65.6877 13.06C65.021 13.3533 64.261 13.5 63.4077 13.5H62.6077ZM62.6077 5.22V10.78H63.4077C63.7677 10.78 64.0877 10.7067 64.3677 10.56C64.6477 10.4133 64.8877 10.22 65.0877 9.98C65.2877 9.72667 65.441 9.43333 65.5477 9.1C65.6543 8.75333 65.7077 8.38 65.7077 7.98C65.7077 7.59333 65.6543 7.23333 65.5477 6.9C65.441 6.55333 65.2877 6.26 65.0877 6.02C64.8877 5.76667 64.6477 5.57333 64.3677 5.44C64.0877 5.29333 63.7677 5.22 63.4077 5.22H62.6077ZM59.5677 10.78V5.22H58.7677C58.4077 5.22 58.0877 5.29333 57.8077 5.44C57.5277 5.57333 57.2877 5.76667 57.0877 6.02C56.8877 6.26 56.7343 6.55333 56.6277 6.9C56.521 7.23333 56.4677 7.59333 56.4677 7.98C56.4677 8.38 56.521 8.75333 56.6277 9.1C56.7343 9.43333 56.8877 9.72667 57.0877 9.98C57.2877 10.22 57.5277 10.4133 57.8077 10.56C58.0877 10.7067 58.4077 10.78 58.7677 10.78H59.5677ZM77.392 15.36C76.232 15.36 75.192 15.16 74.272 14.76C73.352 14.3467 72.572 13.8 71.932 13.12C71.292 12.44 70.8054 11.66 70.472 10.78C70.1387 9.88667 69.972 8.96 69.972 8C69.972 7.04 70.1387 6.12 70.472 5.24C70.8054 4.34667 71.292 3.56 71.932 2.88C72.572 2.2 73.352 1.66 74.272 1.26C75.192 0.846666 76.232 0.639999 77.392 0.639999C78.552 0.639999 79.5854 0.846666 80.492 1.26C81.412 1.66 82.192 2.2 82.832 2.88C83.472 3.56 83.9587 4.34667 84.292 5.24C84.6254 6.12 84.792 7.04 84.792 8C84.792 8.96 84.6254 9.88667 84.292 10.78C83.9587 11.66 83.472 12.44 82.832 13.12C82.192 13.8 81.412 14.3467 80.492 14.76C79.5854 15.16 78.552 15.36 77.392 15.36ZM77.392 12.44C78.032 12.44 78.6054 12.32 79.112 12.08C79.6187 11.8267 80.0454 11.4933 80.392 11.08C80.752 10.6667 81.0254 10.1933 81.212 9.66C81.3987 9.12667 81.492 8.57333 81.492 8C81.492 7.42667 81.3987 6.87333 81.212 6.34C81.0254 5.80667 80.752 5.33333 80.392 4.92C80.0454 4.50667 79.6187 4.18 79.112 3.94C78.6054 3.68667 78.032 3.56 77.392 3.56C76.752 3.56 76.1787 3.68667 75.672 3.94C75.1654 4.18 74.732 4.50667 74.372 4.92C74.0254 5.33333 73.7587 5.80667 73.572 6.34C73.3854 6.87333 73.292 7.42667 73.292 8C73.292 8.57333 73.3854 9.12667 73.572 9.66C73.7587 10.1933 74.0254 10.6667 74.372 11.08C74.732 11.4933 75.1654 11.8267 75.672 12.08C76.1787 12.32 76.752 12.44 77.392 12.44ZM86.7658 0.999999H92.5858C93.5458 0.999999 94.3191 1.13333 94.9058 1.4C95.5058 1.65333 95.9658 1.97333 96.2858 2.36C96.6058 2.73333 96.8191 3.14 96.9258 3.58C97.0458 4.02 97.1058 4.42 97.1058 4.78C97.1058 5.22 97.0324 5.62 96.8858 5.98C96.7391 6.32667 96.5458 6.63333 96.3058 6.9C96.0658 7.16667 95.7991 7.38667 95.5058 7.56C95.2258 7.72 94.9458 7.83333 94.6658 7.9C94.8924 7.9 95.1524 7.97333 95.4458 8.12C95.7391 8.25333 96.0191 8.45333 96.2858 8.72C96.5524 8.97333 96.7724 9.3 96.9458 9.7C97.1324 10.1 97.2258 10.56 97.2258 11.08C97.2258 11.44 97.1658 11.8467 97.0458 12.3C96.9258 12.7533 96.6991 13.18 96.3658 13.58C96.0324 13.98 95.5658 14.32 94.9658 14.6C94.3658 14.8667 93.5858 15 92.6258 15H86.7658V0.999999ZM91.9258 6.7C92.3258 6.7 92.6524 6.64667 92.9058 6.54C93.1591 6.43333 93.3591 6.3 93.5058 6.14C93.6524 5.96667 93.7524 5.78 93.8058 5.58C93.8591 5.38 93.8858 5.19333 93.8858 5.02C93.8858 4.86 93.8591 4.68667 93.8058 4.5C93.7658 4.31333 93.6724 4.14 93.5258 3.98C93.3924 3.80667 93.1924 3.66667 92.9258 3.56C92.6724 3.44 92.3391 3.38 91.9258 3.38H90.0058V6.7H91.9258ZM90.0058 9.08V12.52H92.0058C92.4058 12.52 92.7324 12.4667 92.9858 12.36C93.2391 12.2533 93.4391 12.12 93.5858 11.96C93.7324 11.7867 93.8324 11.6 93.8858 11.4C93.9391 11.2 93.9658 11 93.9658 10.8C93.9658 10.64 93.9391 10.46 93.8858 10.26C93.8324 10.06 93.7324 9.87333 93.5858 9.7C93.4391 9.52667 93.2391 9.38 92.9858 9.26C92.7324 9.14 92.4124 9.08 92.0258 9.08H90.0058ZM112.923 8.86H106.403V15H104.583V0.999999H106.403V7.22H112.923V0.999999H114.743V15H112.923V8.86ZM119.685 2.64V7.22H125.725V8.86H119.685V13.36H125.725V15H117.865V0.999999H125.725V2.64H119.685ZM131.044 2.64H127.424V0.999999H136.504V2.64H132.864V15H131.044V2.64Z" fill="black"/>
</svg>
